# xmcd CD database file
#
# Track frame offsets:
#	150
#	14212
#	29778
#	39774
#	49163
#	61805
#	74138
#	86187
#	97763
#	110090
#	124622
#	135971
#	146394
#	157406
#	170410
#	182907
#	192824
#	202361
#	213832
#	224400
#	236942
#	250541
#	263190
#	281184
#
# Disc length: 3969 seconds
#
# Revision: 2
# Processed by: cddbd v1.5.2PL0 Copyright (c) Steve Scherf et al.
# Submitted via: CDex 1.70beta2
#
DISCID=7b0f7f18
DTITLE=Reader's Digest Folk and Country Jamboree - Best of The West  CD 2of3
DYEAR=1900
DGENRE=Country
TTITLE0=The Cattlemen -  The Last Round-Up
TTITLE1=The Cattlemen - Cool Water
TTITLE2=Gene Martin - Wabash Cannonball
TTITLE3=The Cattlemen - The Yellow Rose of Texas
TTITLE4=The Cattlemen - Tumbling, Tumbling Tumbleweeds
TTITLE5=The Fireside Singers - Cigareetes, Whuskey and Wild,Wild Women
TTITLE6=The Fireside Singers - Deep ln The Heart of Texas
TTITLE7=James Walker and His Orchestra - (Ghost) Riders ln The Sky
TTITLE8=Frankie Laine - High Noon [Do Not ForsakeMe]
TTITLE9=Louis Nunley and The Nashville Sounds - SixteenTons
TTITLE10=The Fireside Singers - I Walk The Line
TTITLE11=Dave Dudley - Six Days On The Road
TTITLE12=Jerry Wallace - San Antonio Rose
TTITLE13=Brenda Lee - Jambalaya [On The Bayou]
TTITLE14=Bobby Sykes and Lou Darnell - Mockin' Bird Hill
TTITLE15=The Fireside Singers - Pistol Packin' Mama
TTITLE16=The Fireside Singers - Back ln The Saddle Again
TTITLE17=Frankie Laine - Mule Train
TTITLE18=Patsey Cline - LovesickBlues
TTITLE19=The Fireside Singers - Don't Let The Stars Get ln Your Eyes
TTITLE20=Jimmy Dean - Big Bad John
TTITLE21=The Fireside Singers - The Battle of New Orleans
TTITLE22=The Fireside Singers - Lucille
TTITLE23=The Arizona Smoke Revue - The Orange Blossom Special
EXTD=
EXTT0=
EXTT1=
EXTT2=
EXTT3=
EXTT4=
EXTT5=
EXTT6=
EXTT7=
EXTT8=
EXTT9=
EXTT10=
EXTT11=
EXTT12=
EXTT13=
EXTT14=
EXTT15=
EXTT16=
EXTT17=
EXTT18=
EXTT19=
EXTT20=
EXTT21=
EXTT22=
EXTT23=
PLAYORDER=
